<svg width="150" height="150" viewBox="0 0 150 150" fill="none" xmlns="http://www.w3.org/2000/svg">
<path d="M59.1183 92.8334C54.5763 94.2634 50.1303 94.5534 45.7543 93.0754C38.1543 90.5134 33.3203 85.2414 31.7643 77.3854C30.6703 71.8654 31.7543 66.5954 34.9783 61.8134C42.8303 50.1674 50.6063 38.4734 58.4183 26.8134C60.285 24.0267 62.1596 21.2481 64.0423 18.4774C67.1543 13.9314 71.4183 11.3554 76.9483 10.8594C84.7963 10.1594 92.2623 14.9734 94.7763 22.4234C95.7763 25.3694 95.7043 28.3554 95.2103 31.3754C94.4823 35.8214 93.7883 40.2714 93.0723 44.7194C92.4883 48.3474 91.8943 51.9754 91.3143 55.6034C91.2923 55.8349 91.2923 56.0679 91.3143 56.2994C93.6623 56.0354 95.9903 55.5594 98.3143 55.5574C104.588 55.5574 109.616 58.3574 113.704 62.9574C116.286 65.8487 117.936 69.4505 118.44 73.2934C119.136 78.2934 117.948 82.8594 115.156 87.0934C108.156 97.7054 101.25 108.373 94.3043 119.017C91.5843 123.187 88.9183 127.393 86.1163 131.507C83.3423 135.577 79.5623 138.387 74.6183 139.041C65.4643 140.241 57.3523 134.769 55.7803 125.841C55.3283 123.273 55.5383 120.533 55.7923 117.907C56.2043 113.655 56.8943 109.429 57.4843 105.195C57.9903 101.551 58.5223 97.9114 59.0343 94.2694C59.0883 93.8354 59.0843 93.4074 59.1183 92.8334ZM69.9923 61.3054C73.4523 60.5234 76.7363 59.7994 80.0063 59.0154C80.2763 58.9494 80.5803 58.5054 80.6443 58.1914C80.8643 57.1214 80.9763 56.0314 81.1463 54.9514C81.717 51.3207 82.2916 47.6901 82.8703 44.0594C83.5203 39.9354 84.1863 35.8154 84.8063 31.6894C85.1003 29.7334 85.6323 27.7774 84.9343 25.7854C83.9103 22.8674 81.8443 21.1474 78.8163 20.8114C76.1443 20.5134 74.0023 21.7754 72.5003 23.9034C69.8823 27.6194 67.3803 31.4194 64.8543 35.1994C57.8703 45.6374 51.0283 56.1574 43.9083 66.4934C40.3323 71.6814 40.9863 76.9434 44.1443 80.3674C46.6363 83.0674 49.7703 84.4034 53.4663 83.7394C56.7523 83.1394 59.9983 82.3394 63.2543 81.5794C72.4996 79.4461 81.7436 77.2987 90.9863 75.1374C92.9243 74.6854 94.7343 74.8094 96.0503 76.4934C97.5003 78.3494 97.1843 80.2434 95.9783 82.1194C94.7723 83.9954 93.6183 85.8814 92.4423 87.7654C85.7756 98.4641 79.0976 109.157 72.4083 119.845C72.2083 120.157 71.7283 120.285 71.3783 120.499C71.3163 120.115 71.1263 119.699 71.2143 119.349C72.7123 113.451 74.2683 107.569 75.7643 101.671C76.8923 97.2294 77.9523 92.7694 79.0803 88.1594C76.0103 88.8934 73.0903 89.5814 70.1823 90.3074C69.9823 90.3594 69.7823 90.6834 69.7023 90.9194C69.6003 91.2274 69.6363 91.5774 69.5883 91.9074C69.0843 95.4514 68.5763 98.9961 68.0643 102.541C67.5603 106.051 67.0403 109.559 66.5543 113.071C66.1543 115.963 65.6623 118.849 65.4503 121.753C65.0983 126.621 69.2503 130.105 73.8143 128.891C76.0923 128.291 77.4863 126.605 78.7023 124.733C84.1303 116.384 89.5583 108.035 94.9863 99.6854C98.8396 93.7587 102.702 87.8374 106.572 81.9214C107.99 79.7654 108.584 77.4114 108.214 74.9054C107.414 69.5314 102.414 65.6754 97.6143 65.9434C95.4543 66.0654 93.2983 66.5614 91.1783 67.0474C80.2863 69.5514 69.4083 72.1114 58.5223 74.6474C56.2923 75.1654 54.1843 74.2474 53.2143 72.4474C52.2143 70.5874 52.7943 68.9194 53.8143 67.3134C56.8143 62.5774 59.8743 57.8694 62.8463 53.1134C67.0843 46.3334 71.2623 39.5134 75.4743 32.7134C75.7783 32.2214 76.1403 31.7674 76.4743 31.2954L76.6203 31.3834C74.4283 41.3054 72.2263 51.2334 69.9923 61.3054Z" fill="black"/>
</svg>
