<svg width="34" height="34" viewBox="0 0 34 34" fill="none" xmlns="http://www.w3.org/2000/svg">
<path d="M14.3123 20.018C13.5436 20.26 12.7912 20.309 12.0507 20.0589C10.7645 19.6253 9.94645 18.7332 9.68313 17.4037C9.49799 16.4695 9.68144 15.5777 10.227 14.7684C11.5558 12.7976 12.8718 10.8186 14.1938 8.84535C14.5097 8.37376 14.827 7.90352 15.1456 7.43464C15.6722 6.66532 16.3938 6.22938 17.3297 6.14544C18.6578 6.02698 19.9213 6.84166 20.3467 8.10242C20.5159 8.60098 20.5037 9.1063 20.4201 9.61738C20.2969 10.3698 20.1795 11.1229 20.0583 11.8756C19.9595 12.4896 19.859 13.1035 19.7608 13.7175C19.7571 13.7567 19.7571 13.7961 19.7608 13.8353C20.1582 13.7906 20.5521 13.7101 20.9454 13.7097C22.0072 13.7097 22.8581 14.1836 23.5499 14.962C23.9867 15.4513 24.266 16.0609 24.3514 16.7112C24.4692 17.5573 24.2681 18.3301 23.7956 19.0466C22.611 20.8425 21.4423 22.6478 20.2668 24.4491C19.8065 25.1548 19.3553 25.8666 18.8812 26.5628C18.4117 27.2516 17.772 27.7271 16.9353 27.8378C15.3862 28.0409 14.0134 27.1148 13.7474 25.6039C13.6709 25.1693 13.7064 24.7057 13.7494 24.2613C13.8191 23.5417 13.9359 22.8265 14.0357 22.11C14.1214 21.4933 14.2114 20.8773 14.2981 20.261C14.3072 20.1875 14.3065 20.1151 14.3123 20.018ZM16.1525 14.6825C16.738 14.5501 17.2938 14.4276 17.8472 14.2949C17.8929 14.2837 17.9443 14.2086 17.9551 14.1555C17.9924 13.9744 18.0113 13.7899 18.0401 13.6072C18.1367 12.9927 18.2339 12.3783 18.3318 11.7639C18.4418 11.066 18.5545 10.3688 18.6595 9.67052C18.7092 9.3395 18.7993 9.00849 18.6811 8.67138C18.5078 8.17756 18.1582 7.88649 17.6458 7.82962C17.1936 7.77919 16.8311 7.99276 16.5769 8.35289C16.1339 8.98175 15.7105 9.62482 15.283 10.2645C14.1011 12.0309 12.9432 13.8113 11.7383 15.5604C11.1331 16.4384 11.2438 17.3289 11.7782 17.9083C12.1999 18.3653 12.7303 18.5913 13.3558 18.479C13.9119 18.3774 14.4612 18.2421 15.0122 18.1134C16.5768 17.7524 18.1412 17.389 19.7053 17.0233C20.0333 16.9468 20.3396 16.9677 20.5623 17.2527C20.8077 17.5668 20.7542 17.8873 20.5501 18.2048C20.346 18.5223 20.1507 18.8415 19.9517 19.1603C18.8235 20.9708 17.6934 22.7805 16.5613 24.5892C16.5275 24.642 16.4463 24.6637 16.387 24.6999C16.3765 24.6349 16.3444 24.5645 16.3593 24.5053C16.6128 23.5072 16.8761 22.5117 17.1293 21.5136C17.3202 20.7619 17.4996 20.0071 17.6905 19.227C17.1709 19.3512 16.6768 19.4676 16.1846 19.5905C16.1508 19.5993 16.1169 19.6541 16.1034 19.6941C16.0861 19.7462 16.0922 19.8054 16.0841 19.8613C15.9988 20.461 15.9129 21.0609 15.8262 21.6609C15.7409 22.2549 15.6529 22.8485 15.5707 23.4429C15.503 23.9323 15.4197 24.4207 15.3838 24.9121C15.3243 25.7359 16.0269 26.3255 16.7993 26.1201C17.1848 26.0185 17.4207 25.7332 17.6265 25.4164C18.5451 24.0035 19.4637 22.5905 20.3822 21.1775C21.0343 20.1746 21.6879 19.1725 22.3429 18.1713C22.5829 17.8065 22.6834 17.4081 22.6208 16.984C22.4854 16.0745 21.6393 15.422 20.827 15.4673C20.4614 15.488 20.0966 15.5719 19.7378 15.6542C17.8945 16.0779 16.0537 16.5112 14.2114 16.9403C13.834 17.028 13.4773 16.8726 13.3131 16.568C13.1439 16.2533 13.2421 15.971 13.4147 15.6992C13.9224 14.8977 14.4402 14.101 14.9432 13.2961C15.6604 12.1487 16.3674 10.9946 17.0802 9.84381C17.1317 9.76055 17.1929 9.68372 17.2494 9.60384L17.2741 9.61873C16.9032 11.2978 16.5305 12.978 16.1525 14.6825Z" fill="black"/>
</svg>
